<?xml version="1.0" standalone="no"?>
<!DOCTYPE svg PUBLIC "-//W3C//DTD SVG 20010904//EN"
 "http://www.w3.org/TR/2001/REC-SVG-20010904/DTD/svg10.dtd">
<svg version="1.0" xmlns="http://www.w3.org/2000/svg"
 width="534.000000pt" height="534.000000pt" viewBox="0 0 534.000000 534.000000"
 preserveAspectRatio="xMidYMid meet">
<metadata>
Created by potrace 1.16, written by Peter Selinger 2001-2019
</metadata>
<g transform="translate(0.000000,534.000000) scale(0.100000,-0.100000)"
fill="#000000" stroke="none">
<path d="M2223 5220 c-115 -46 -206 -170 -219 -297 -6 -57 -5 -63 19 -87 55
-55 114 -23 134 74 15 76 51 126 113 158 126 64 266 -15 290 -163 14 -85 51
-112 115 -83 31 14 39 43 32 118 -6 70 -54 166 -104 210 -69 61 -129 83 -233
87 -77 3 -105 -1 -147 -17z"/>
<path d="M1583 4750 c-12 -5 -26 -18 -32 -29 -7 -12 -11 -119 -11 -294 0 -262
1 -275 21 -301 l20 -26 778 0 c741 0 779 1 794 18 15 16 17 53 17 309 0 282
-1 290 -21 309 -20 18 -49 19 -783 21 -426 1 -771 -2 -783 -7z m1437 -325 l0
-175 -665 0 -665 0 0 175 0 175 665 0 665 0 0 -175z"/>
<path d="M871 4564 l-21 -27 0 -1894 c0 -1916 0 -1923 34 -1945 6 -4 421 -8
922 -8 870 0 912 1 927 18 27 30 22 87 -9 111 -27 21 -32 21 -875 21 l-849 0
0 1800 0 1800 165 0 c163 0 166 0 190 25 31 30 33 77 5 105 -19 19 -33 20
-244 20 l-225 0 -20 -26z"/>
<path d="M3307 4572 c-24 -26 -22 -87 3 -112 19 -19 33 -20 200 -20 l180 0 0
-1225 0 -1226 25 -24 c30 -31 77 -33 105 -5 20 20 20 33 20 1308 0 1236 -1
1290 -18 1305 -16 15 -49 17 -259 17 -220 0 -241 -2 -256 -18z"/>
<path d="M1813 3418 l-182 -182 -99 96 c-54 53 -109 99 -123 103 -51 13 -99
-27 -99 -82 0 -9 64 -81 142 -160 129 -129 145 -143 177 -143 32 0 52 18 253
218 206 206 218 219 218 255 0 47 -28 77 -73 77 -28 0 -53 -21 -214 -182z"/>
<path d="M2345 3380 c-27 -30 -25 -88 4 -111 22 -18 49 -19 495 -19 536 0 516
-3 516 75 0 78 21 75 -521 75 -467 0 -476 0 -494 -20z"/>
<path d="M1810 2595 l-186 -185 -99 100 c-90 91 -103 100 -137 100 -28 0 -42
-6 -58 -27 -38 -49 -24 -74 123 -220 187 -186 153 -193 430 85 203 204 217
220 217 254 0 28 -7 42 -26 57 -53 42 -64 35 -264 -164z"/>
<path d="M2351 2563 c-32 -27 -37 -73 -11 -106 l21 -27 483 0 c455 0 484 1
499 18 17 19 23 78 9 98 -21 32 -52 34 -515 34 -428 0 -466 -1 -486 -17z"/>
<path d="M1806 1770 l-181 -179 -101 99 c-83 83 -106 100 -131 100 -40 0 -71
-27 -79 -68 -7 -32 -2 -38 137 -178 120 -119 150 -144 174 -144 24 0 64 35
252 222 209 208 223 225 223 259 0 46 -25 69 -75 69 -37 0 -48 -9 -219 -180z"/>
<path d="M3510 1835 c-317 -64 -567 -302 -651 -620 -43 -164 -24 -391 46 -548
81 -183 230 -334 418 -423 122 -57 183 -69 357 -69 135 0 165 3 230 23 299 95
513 320 587 619 22 92 22 294 0 386 -81 329 -347 577 -681 636 -79 14 -225 12
-306 -4z m298 -151 c248 -50 457 -242 530 -489 30 -100 34 -248 9 -345 -101
-393 -510 -621 -886 -495 -223 75 -403 273 -457 500 -12 51 -15 101 -12 185 8
190 63 314 203 455 166 167 387 235 613 189z"/>
<path d="M3808 1063 l-238 -237 -133 132 c-120 119 -137 132 -169 132 -43 0
-78 -34 -78 -76 0 -25 27 -56 173 -202 157 -157 175 -172 207 -172 33 0 55 20
313 278 249 249 277 280 277 310 0 44 -30 72 -77 72 -35 0 -50 -13 -275 -237z"/>
<path d="M2341 1724 c-12 -15 -21 -33 -21 -41 0 -27 29 -71 52 -77 13 -3 130
-6 261 -6 l238 0 24 25 c31 30 33 77 5 105 -19 19 -33 20 -279 20 l-260 0 -20
-26z"/>
</g>
</svg>
