<?xml version="1.0" standalone="no"?>
<!DOCTYPE svg PUBLIC "-//W3C//DTD SVG 20010904//EN"
 "http://www.w3.org/TR/2001/REC-SVG-20010904/DTD/svg10.dtd">
<svg version="1.0" xmlns="http://www.w3.org/2000/svg"
 width="512.000000pt" height="512.000000pt" viewBox="0 0 512.000000 512.000000"
 preserveAspectRatio="xMidYMid meet">
<metadata>
Created by potrace 1.16, written by Peter Selinger 2001-2019
</metadata>
<g transform="translate(0.000000,512.000000) scale(0.100000,-0.100000)"
fill="#000000" stroke="none">
<path d="M4045 5005 l-25 -24 0 -296 0 -295 -438 0 c-483 0 -542 -5 -721 -62
-185 -59 -315 -131 -451 -250 -82 -72 -215 -220 -288 -320 -126 -173 -277
-463 -452 -868 -132 -305 -263 -571 -341 -690 -82 -126 -212 -256 -299 -298
-130 -63 -146 -65 -585 -69 -389 -4 -401 -5 -422 -26 -23 -20 -23 -21 -23
-344 0 -308 1 -324 20 -343 11 -11 31 -22 44 -26 14 -3 211 -4 438 -1 449 5
499 10 683 72 211 70 356 165 535 352 235 245 378 490 650 1118 273 628 423
853 638 956 113 54 157 59 605 59 l407 0 0 -289 0 -290 24 -28 c20 -23 32 -28
70 -28 l46 0 480 480 480 480 0 50 0 50 -478 477 -478 478 -47 0 c-38 0 -53
-5 -72 -25z"/>
<path d="M22 4367 c-22 -23 -22 -26 -22 -339 0 -174 3 -324 6 -333 17 -42 44
-45 436 -45 421 0 446 -3 587 -71 148 -72 287 -239 417 -501 32 -65 61 -118
64 -118 4 0 28 51 55 113 70 163 216 456 284 572 69 116 72 97 -36 227 -178
214 -405 375 -638 452 -178 58 -185 59 -675 63 l-455 4 -23 -24z"/>
<path d="M2451 2398 c-70 -159 -225 -471 -284 -571 -26 -43 -47 -83 -47 -89 0
-39 276 -332 384 -406 158 -109 310 -172 509 -209 136 -25 159 -26 575 -30
l432 -5 0 -288 0 -289 24 -28 c20 -23 32 -28 70 -28 l46 0 480 480 480 480 0
50 0 50 -478 477 -478 478 -47 0 c-38 0 -53 -5 -72 -25 l-25 -24 0 -296 0
-297 -417 5 c-468 4 -469 4 -617 79 -145 73 -280 237 -410 496 -31 61 -60 112
-64 112 -4 0 -32 -55 -61 -122z"/>
</g>
</svg>
